<svg width="20" height="20" viewBox="0 0 20 20" fill="none" xmlns="http://www.w3.org/2000/svg">
<path d="M1.00001 12H3.00001V19C3.00001 19.2652 3.10537 19.5196 3.29291 19.7071C3.48044 19.8946 3.7348 20 4.00001 20H16C16.2652 20 16.5196 19.8946 16.7071 19.7071C16.8947 19.5196 17 19.2652 17 19V12H19C19.1933 12.0002 19.3824 11.9442 19.5445 11.839C19.7066 11.7337 19.8346 11.5836 19.913 11.407C19.992 11.2305 20.018 11.0348 19.9878 10.8438C19.9576 10.6527 19.8726 10.4746 19.743 10.331L10.743 0.330996C10.364 -0.0910041 9.63601 -0.0910041 9.25701 0.330996L0.257013 10.331C0.127704 10.4747 0.0428007 10.6527 0.0125766 10.8436C-0.0176475 11.0345 0.0081029 11.2301 0.0867121 11.4067C0.165321 11.5833 0.29342 11.7333 0.455508 11.8386C0.617596 11.9439 0.806726 11.9999 1.00001 12V12ZM6.65301 9.641C7.06924 9.23006 7.63061 8.99964 8.21551 8.99964C8.80042 8.99964 9.36178 9.23006 9.77801 9.641L10.002 9.861L10.225 9.641C10.6414 9.23 11.2029 8.99955 11.788 8.99955C12.3731 8.99955 12.9346 9.23 13.351 9.641C13.5576 9.83973 13.7219 10.0781 13.8342 10.3419C13.9464 10.6056 14.0043 10.8893 14.0043 11.176C14.0043 11.4626 13.9464 11.7464 13.8342 12.0101C13.7219 12.2739 13.5576 12.5123 13.351 12.711L10.002 16L6.65301 12.711C6.44643 12.5123 6.28209 12.2739 6.16984 12.0101C6.05758 11.7464 5.99972 11.4626 5.99972 11.176C5.99972 10.8893 6.05758 10.6056 6.16984 10.3419C6.28209 10.0781 6.44643 9.83973 6.65301 9.641V9.641Z" fill="black"/>
</svg>
