<svg width="35" height="34" viewBox="0 0 35 34" fill="none" xmlns="http://www.w3.org/2000/svg">
<path d="M14.22 19.64C16.3075 21.7577 18.8333 23.3926 21.62 24.43L25.39 21.43C25.5018 21.353 25.6343 21.3118 25.77 21.3118C25.9057 21.3118 26.0382 21.353 26.15 21.43L33.15 25.94C33.4157 26.0998 33.6407 26.3192 33.8071 26.5808C33.9735 26.8425 34.0768 27.1392 34.1088 27.4476C34.1408 27.7561 34.1006 28.0677 33.9915 28.3579C33.8824 28.6482 33.7073 28.9091 33.48 29.12L30.2 32.36C29.7303 32.8241 29.1529 33.1648 28.5195 33.3515C27.8861 33.5382 27.2164 33.5652 26.57 33.43C20.1222 32.0983 14.1791 28.9795 9.41999 24.43C4.76648 19.8353 1.54627 13.9889 0.149995 7.60001C0.0120608 6.96365 0.0408495 6.30245 0.233571 5.68049C0.426292 5.05852 0.77641 4.49689 1.24999 4.05001L4.64999 0.770014C4.86039 0.553801 5.11698 0.387989 5.40054 0.284992C5.6841 0.181995 5.98729 0.144482 6.28741 0.175263C6.58752 0.206044 6.87678 0.30432 7.13353 0.462734C7.39028 0.621148 7.60787 0.835593 7.77 1.09001L12.43 8.00001C12.5104 8.10852 12.5538 8.23998 12.5538 8.37501C12.5538 8.51005 12.5104 8.64151 12.43 8.75001L9.35999 12.44C10.4256 15.171 12.0857 17.6304 14.22 19.64V19.64Z" fill="black"/>
</svg>
