<?xml version="1.0" encoding="UTF-8"?><!DOCTYPE svg PUBLIC "-//W3C//DTD SVG 1.1//EN" "http://www.w3.org/Graphics/SVG/1.1/DTD/svg11.dtd"><svg xmlns="http://www.w3.org/2000/svg" xmlns:xlink="http://www.w3.org/1999/xlink"><symbol id="icon-address" viewBox="0 0 20 20">
<path d="M1.00001 12H3.00001V19C3.00001 19.2652 3.10537 19.5196 3.29291 19.7071C3.48044 19.8946 3.7348 20 4.00001 20H16C16.2652 20 16.5196 19.8946 16.7071 19.7071C16.8947 19.5196 17 19.2652 17 19V12H19C19.1933 12.0002 19.3824 11.9442 19.5445 11.839C19.7066 11.7337 19.8346 11.5836 19.913 11.407C19.992 11.2305 20.018 11.0348 19.9878 10.8438C19.9576 10.6527 19.8726 10.4746 19.743 10.331L10.743 0.330996C10.364 -0.0910041 9.63601 -0.0910041 9.25701 0.330996L0.257013 10.331C0.127704 10.4747 0.0428007 10.6527 0.0125766 10.8436C-0.0176475 11.0345 0.0081029 11.2301 0.0867121 11.4067C0.165321 11.5833 0.29342 11.7333 0.455508 11.8386C0.617596 11.9439 0.806726 11.9999 1.00001 12V12ZM6.65301 9.641C7.06924 9.23006 7.63061 8.99964 8.21551 8.99964C8.80042 8.99964 9.36178 9.23006 9.77801 9.641L10.002 9.861L10.225 9.641C10.6414 9.23 11.2029 8.99955 11.788 8.99955C12.3731 8.99955 12.9346 9.23 13.351 9.641C13.5576 9.83973 13.7219 10.0781 13.8342 10.3419C13.9464 10.6056 14.0043 10.8893 14.0043 11.176C14.0043 11.4626 13.9464 11.7464 13.8342 12.0101C13.7219 12.2739 13.5576 12.5123 13.351 12.711L10.002 16L6.65301 12.711C6.44643 12.5123 6.28209 12.2739 6.16984 12.0101C6.05758 11.7464 5.99972 11.4626 5.99972 11.176C5.99972 10.8893 6.05758 10.6056 6.16984 10.3419C6.28209 10.0781 6.44643 9.83973 6.65301 9.641V9.641Z" fill="black"/>
</symbol><symbol id="icon-discord" viewBox="0 0 24 18">
<path d="M20.317 1.492C18.787 0.802004 17.147 0.292004 15.432 0.00200412C15.4167 -0.000927963 15.4009 0.000961578 15.3868 0.00741145C15.3726 0.0138613 15.3608 0.0245524 15.353 0.0380041C15.143 0.407004 14.909 0.888004 14.745 1.268C12.9261 0.996241 11.0769 0.996241 9.25801 1.268C9.07534 0.846865 8.86936 0.436228 8.64101 0.0380041C8.63327 0.0243868 8.62156 0.0134539 8.60744 0.00666425C8.59333 -0.00012538 8.57748 -0.00244886 8.56201 4.02814e-06C6.84801 0.290004 5.20801 0.800004 3.67701 1.491C3.66384 1.49653 3.65267 1.50595 3.64501 1.518C0.533008 6.093 -0.319992 10.555 0.0990076 14.961C0.100174 14.9718 0.103523 14.9822 0.108853 14.9917C0.114182 15.0011 0.12138 15.0094 0.130008 15.016C1.9464 16.3384 3.97234 17.3458 6.12301 17.996C6.138 18.0006 6.15404 18.0006 6.16902 17.996C6.18401 17.9913 6.19724 17.9823 6.20701 17.97C6.66901 17.35 7.08101 16.695 7.43301 16.007C7.45401 15.967 7.43401 15.919 7.39201 15.903C6.74601 15.6597 6.12009 15.3662 5.52001 15.025C5.50922 15.0188 5.50014 15.0101 5.49356 14.9996C5.48699 14.989 5.48313 14.977 5.48234 14.9647C5.48155 14.9523 5.48384 14.9399 5.48902 14.9286C5.4942 14.9173 5.5021 14.9075 5.51201 14.9C5.63801 14.807 5.76401 14.71 5.88401 14.613C5.89481 14.6043 5.90782 14.5987 5.92159 14.597C5.93536 14.5952 5.94935 14.5973 5.96201 14.603C9.88901 16.367 14.142 16.367 18.023 14.603C18.0357 14.5969 18.0498 14.5946 18.0638 14.5962C18.0778 14.5978 18.091 14.6032 18.102 14.612C18.222 14.71 18.347 14.807 18.474 14.9C18.484 14.9073 18.492 14.917 18.4974 14.9282C18.5027 14.9394 18.5052 14.9517 18.5046 14.9641C18.504 14.9765 18.5004 14.9885 18.494 14.9992C18.4876 15.0098 18.4787 15.0187 18.468 15.025C17.87 15.369 17.248 15.66 16.595 15.902C16.585 15.9056 16.5758 15.9114 16.5682 15.9188C16.5606 15.9263 16.5546 15.9353 16.5507 15.9452C16.5469 15.9552 16.5451 15.9658 16.5457 15.9765C16.5463 15.9871 16.5491 15.9975 16.554 16.007C16.914 16.694 17.326 17.348 17.779 17.969C17.7884 17.9817 17.8015 17.9913 17.8166 17.9963C17.8316 18.0013 17.8478 18.0015 17.863 17.997C20.0174 17.3486 22.0466 16.3408 23.865 15.016C23.8739 15.0098 23.8813 15.0018 23.8868 14.9925C23.8924 14.9831 23.8958 14.9728 23.897 14.962C24.397 9.868 23.059 5.442 20.348 1.52C20.3414 1.50726 20.3304 1.49732 20.317 1.492ZM8.02001 12.278C6.83801 12.278 5.86301 11.209 5.86301 9.898C5.86301 8.586 6.81901 7.518 8.02001 7.518C9.23001 7.518 10.196 8.595 10.177 9.898C10.177 11.21 9.22101 12.278 8.02001 12.278V12.278ZM15.995 12.278C14.812 12.278 13.838 11.209 13.838 9.898C13.838 8.586 14.793 7.518 15.995 7.518C17.205 7.518 18.171 8.595 18.152 9.898C18.152 11.21 17.206 12.278 15.995 12.278V12.278Z" fill="black"/>
</symbol><symbol id="icon-gitHub" viewBox="0 0 24 24">
<path fill-rule="evenodd" clip-rule="evenodd" d="M12 0C5.37 0 0 5.37 0 12C0 17.31 3.435 21.795 8.205 23.385C8.805 23.49 9.03 23.13 9.03 22.815C9.03 22.53 9.015 21.585 9.015 20.58C6 21.135 5.22 19.845 4.98 19.17C4.845 18.825 4.26 17.76 3.75 17.475C3.33 17.25 2.73 16.695 3.735 16.68C4.68 16.665 5.355 17.55 5.58 17.91C6.66 19.725 8.385 19.215 9.075 18.9C9.18 18.12 9.495 17.595 9.84 17.295C7.17 16.995 4.38 15.96 4.38 11.37C4.38 10.065 4.845 8.985 5.61 8.145C5.49 7.845 5.07 6.615 5.73 4.965C5.73 4.965 6.735 4.65 9.03 6.195C9.99 5.925 11.01 5.79 12.03 5.79C13.05 5.79 14.07 5.925 15.03 6.195C17.325 4.635 18.33 4.965 18.33 4.965C18.99 6.615 18.57 7.845 18.45 8.145C19.215 8.985 19.68 10.05 19.68 11.37C19.68 15.975 16.875 16.995 14.205 17.295C14.64 17.67 15.015 18.39 15.015 19.515C15.015 21.12 15 22.41 15 22.815C15 23.13 15.225 23.505 15.825 23.385C18.2072 22.5807 20.2772 21.0497 21.7437 19.0074C23.2101 16.965 23.9993 14.5143 24 12C24 5.37 18.63 0 12 0Z" fill="black"/>
</symbol><symbol id="icon-mail" viewBox="0 0 16 13">
<path d="M16 3.373V10.5C16 11.163 15.7366 11.7989 15.2678 12.2678C14.7989 12.7366 14.163 13 13.5 13H2.5C1.83696 13 1.20107 12.7366 0.732233 12.2678C0.263392 11.7989 0 11.163 0 10.5V3.373L7.746 7.931C7.82295 7.97638 7.91066 8.00032 8 8.00032C8.08934 8.00032 8.17705 7.97638 8.254 7.931L16 3.373ZM13.5 3.09527e-08C14.1151 -9.6716e-05 14.7087 0.226607 15.1672 0.63674C15.6257 1.04687 15.9168 1.61164 15.985 2.223L8 6.92L0.0150001 2.223C0.0831583 1.61164 0.374324 1.04687 0.832795 0.63674C1.29127 0.226607 1.88485 -9.6716e-05 2.5 3.09527e-08H13.5Z" fill="black"/>
</symbol><symbol id="icon-tel" viewBox="0 0 35 34">
<path d="M14.22 19.64C16.3075 21.7577 18.8333 23.3926 21.62 24.43L25.39 21.43C25.5018 21.353 25.6343 21.3118 25.77 21.3118C25.9057 21.3118 26.0382 21.353 26.15 21.43L33.15 25.94C33.4157 26.0998 33.6407 26.3192 33.8071 26.5808C33.9735 26.8425 34.0768 27.1392 34.1088 27.4476C34.1408 27.7561 34.1006 28.0677 33.9915 28.3579C33.8824 28.6482 33.7073 28.9091 33.48 29.12L30.2 32.36C29.7303 32.8241 29.1529 33.1648 28.5195 33.3515C27.8861 33.5382 27.2164 33.5652 26.57 33.43C20.1222 32.0983 14.1791 28.9795 9.41999 24.43C4.76648 19.8353 1.54627 13.9889 0.149995 7.60001C0.0120608 6.96365 0.0408495 6.30245 0.233571 5.68049C0.426292 5.05852 0.77641 4.49689 1.24999 4.05001L4.64999 0.770014C4.86039 0.553801 5.11698 0.387989 5.40054 0.284992C5.6841 0.181995 5.98729 0.144482 6.28741 0.175263C6.58752 0.206044 6.87678 0.30432 7.13353 0.462734C7.39028 0.621148 7.60787 0.835593 7.77 1.09001L12.43 8.00001C12.5104 8.10852 12.5538 8.23998 12.5538 8.37501C12.5538 8.51005 12.5104 8.64151 12.43 8.75001L9.35999 12.44C10.4256 15.171 12.0857 17.6304 14.22 19.64V19.64Z" fill="black"/>
</symbol><symbol id="icon-telegram" viewBox="0 0 26 25">
<path d="M24.07 0.996012C23.749 1.01937 23.4339 1.09468 23.137 1.21901H23.133C22.848 1.33201 21.493 1.90201 19.433 2.76601L12.051 5.87501C6.754 8.10501 1.547 10.301 1.547 10.301L1.609 10.277C1.609 10.277 1.25 10.395 0.874997 10.652C0.643325 10.7994 0.44397 10.9923 0.288997 11.219C0.104997 11.489 -0.0430034 11.902 0.0119966 12.329C0.101997 13.051 0.569996 13.484 0.905996 13.723C1.246 13.965 1.57 14.078 1.57 14.078H1.578L6.461 15.723C6.68 16.426 7.949 20.598 8.254 21.559C8.434 22.133 8.609 22.492 8.828 22.766C8.934 22.906 9.058 23.023 9.207 23.117C9.28446 23.1621 9.36705 23.1977 9.453 23.223L9.403 23.211C9.418 23.215 9.43 23.227 9.441 23.231C9.481 23.242 9.508 23.246 9.559 23.254C10.332 23.488 10.953 23.008 10.953 23.008L10.988 22.98L13.871 20.355L18.703 24.062L18.813 24.109C19.82 24.551 20.84 24.305 21.379 23.871C21.922 23.434 22.133 22.875 22.133 22.875L22.168 22.785L25.902 3.65601C26.008 3.18401 26.035 2.74201 25.918 2.31301C25.7973 1.87884 25.5188 1.50542 25.137 1.26601C24.8164 1.07113 24.4447 0.977061 24.07 0.996012V0.996012ZM23.969 3.04601C23.965 3.10901 23.977 3.10201 23.949 3.22301V3.23401L20.25 22.164C20.234 22.191 20.207 22.25 20.133 22.309C20.055 22.371 19.993 22.41 19.668 22.281L13.758 17.75L10.188 21.004L10.938 16.214L20.594 7.21401C20.992 6.84401 20.859 6.76601 20.859 6.76601C20.887 6.31201 20.258 6.63301 20.258 6.63301L8.082 14.176L8.078 14.156L2.242 12.191V12.187L2.227 12.184C2.23723 12.1806 2.24725 12.1766 2.257 12.172L2.289 12.156L2.32 12.145C2.32 12.145 7.531 9.94901 12.828 7.71901C15.48 6.60201 18.152 5.47701 20.207 4.60901C22.262 3.74601 23.781 3.11301 23.867 3.07901C23.949 3.04701 23.91 3.04701 23.969 3.04701V3.04601Z" fill="black"/>
</symbol></svg>